<svg id="eW4Y81ZNaBP1" xmlns="http://www.w3.org/2000/svg" xmlns:xlink="http://www.w3.org/1999/xlink" viewBox="0 0 700 400" shape-rendering="geometricPrecision" text-rendering="geometricPrecision" width="700" height="400" style="background-color:#3d208b"><style><![CDATA[#eW4Y81ZNaBP4_to {animation: eW4Y81ZNaBP4_to__to 2000ms linear infinite alternate forwards}@keyframes eW4Y81ZNaBP4_to__to { 0% {transform: translate(245.250004px,215.007511px);animation-timing-function: cubic-bezier(0.455,0.03,0.515,0.955)} 100% {transform: translate(247.25px,217.01px)}} #eW4Y81ZNaBP4 {animation: eW4Y81ZNaBP4_c_o 2000ms linear infinite alternate forwards}@keyframes eW4Y81ZNaBP4_c_o { 0% {opacity: 0} 100% {opacity: 0.38}} #eW4Y81ZNaBP9_to {animation: eW4Y81ZNaBP9_to__to 2000ms linear infinite alternate forwards}@keyframes eW4Y81ZNaBP9_to__to { 0% {transform: translate(245.250004px,215.007511px);animation-timing-function: cubic-bezier(0.455,0.03,0.515,0.955)} 100% {transform: translate(243.25px,213.01px)}} #eW4Y81ZNaBP10 {animation: eW4Y81ZNaBP10_f_p 2000ms linear infinite alternate forwards}@keyframes eW4Y81ZNaBP10_f_p { 0% {fill: #3d208b;animation-timing-function: cubic-bezier(0.455,0.03,0.515,0.955)} 100% {fill: #40219b}} #eW4Y81ZNaBP11 {animation: eW4Y81ZNaBP11_f_p 2000ms linear infinite alternate forwards}@keyframes eW4Y81ZNaBP11_f_p { 0% {fill: #3d208b;animation-timing-function: cubic-bezier(0.455,0.03,0.515,0.955)} 100% {fill: #40219b}} #eW4Y81ZNaBP12 {animation: eW4Y81ZNaBP12_f_p 2000ms linear infinite alternate forwards}@keyframes eW4Y81ZNaBP12_f_p { 0% {fill: #3d208b;animation-timing-function: cubic-bezier(0.455,0.03,0.515,0.955)} 100% {fill: #40219b}} #eW4Y81ZNaBP13 {animation: eW4Y81ZNaBP13_s_p 2000ms linear infinite alternate forwards}@keyframes eW4Y81ZNaBP13_s_p { 0% {stroke: #3d208b;animation-timing-function: cubic-bezier(0.455,0.03,0.515,0.955)} 100% {stroke: #40219b}} #eW4Y81ZNaBP14_to {animation: eW4Y81ZNaBP14_to__to 2000ms linear infinite alternate forwards}@keyframes eW4Y81ZNaBP14_to__to { 0% {transform: translate(262.80394px,222.599983px);animation-timing-function: cubic-bezier(0.455,0.03,0.515,0.955)} 100% {transform: translate(267.8px,227.6px)}} #eW4Y81ZNaBP14 {animation: eW4Y81ZNaBP14_c_o 2000ms linear infinite alternate forwards}@keyframes eW4Y81ZNaBP14_c_o { 0% {opacity: 0;animation-timing-function: cubic-bezier(0.455,0.03,0.515,0.955)} 100% {opacity: 0.5}} #eW4Y81ZNaBP15_to {animation: eW4Y81ZNaBP15_to__to 2000ms linear infinite alternate forwards}@keyframes eW4Y81ZNaBP15_to__to { 0% {transform: translate(262.80394px,222.599983px);animation-timing-function: cubic-bezier(0.455,0.03,0.515,0.955)} 100% {transform: translate(257.8px,217.6px)}} #eW4Y81ZNaBP15 {animation: eW4Y81ZNaBP15_f_p 2000ms linear infinite alternate forwards}@keyframes eW4Y81ZNaBP15_f_p { 0% {fill: #3d208b;animation-timing-function: cubic-bezier(0.455,0.03,0.515,0.955)} 100% {fill: #4d2fca}}]]></style><defs><filter id="eW4Y81ZNaBP5-filter" x="-150%" width="400%" y="-150%" height="400%"><feGaussianBlur id="eW4Y81ZNaBP5-filter-blur-0" stdDeviation="8,8" result="result"/></filter><filter id="eW4Y81ZNaBP6-filter" x="-150%" width="400%" y="-150%" height="400%"><feGaussianBlur id="eW4Y81ZNaBP6-filter-blur-0" stdDeviation="8,8" result="result"/></filter><filter id="eW4Y81ZNaBP7-filter" x="-150%" width="400%" y="-150%" height="400%"><feGaussianBlur id="eW4Y81ZNaBP7-filter-blur-0" stdDeviation="8,8" result="result"/></filter><filter id="eW4Y81ZNaBP8-filter" x="-150%" width="400%" y="-150%" height="400%"><feGaussianBlur id="eW4Y81ZNaBP8-filter-blur-0" stdDeviation="8,8" result="result"/></filter><filter id="eW4Y81ZNaBP14-filter" x="-150%" width="400%" y="-150%" height="400%"><feGaussianBlur id="eW4Y81ZNaBP14-filter-blur-0" stdDeviation="8,8" result="result"/></filter></defs><g clip-path="url(#eW4Y81ZNaBP16)"><g transform="translate(97.75 0)"><g id="eW4Y81ZNaBP4_to" transform="translate(245.250004,215.007511)"><g id="eW4Y81ZNaBP4" transform="translate(-245.250004,-215.007511)" opacity="0"><path d="M57.77,244.14C88,289.72,63.72,305.85,94,351.43s54.56,29.45,84.81,75" transform="translate(-60 0)" filter="url(#eW4Y81ZNaBP5-filter)" fill="none" stroke="#1e1030" stroke-width="72" stroke-miterlimit="10"/><rect width="152.23" height="152.23" rx="17.23" ry="17.23" transform="matrix(.34202-.939693 0.939693 0.34202 317.965759 420.88932)" filter="url(#eW4Y81ZNaBP6-filter)" fill="#1e1030"/><circle r="102.64" transform="translate(57.51 59.7)" filter="url(#eW4Y81ZNaBP7-filter)" fill="#1e1030"/><polygon points="535.63,162.81 415.3,220.64 323.13,124.06 386.49,6.56 517.83,30.51 535.63,162.81" transform="translate(50 0)" filter="url(#eW4Y81ZNaBP8-filter)" fill="#1e1030"/></g></g><g id="eW4Y81ZNaBP9_to" transform="translate(245.250004,215.007511)"><g transform="translate(-245.250004,-215.007511)"><circle id="eW4Y81ZNaBP10" r="102.64" transform="translate(57.51 59.7)" fill="#3d208b"/><polygon id="eW4Y81ZNaBP11" points="535.63,162.81 415.3,220.64 323.13,124.06 386.49,6.56 517.83,30.51 535.63,162.81" transform="translate(50 0)" fill="#3d208b"/><rect id="eW4Y81ZNaBP12" width="152.23" height="152.23" rx="17.23" ry="17.23" transform="matrix(.34202-.939693 0.939693 0.34202 317.965611 420.889393)" fill="#3d208b"/><path id="eW4Y81ZNaBP13" d="M57.77,244.14C88,289.72,63.72,305.85,94,351.43s54.56,29.45,84.81,75" transform="translate(-60 0)" fill="none" stroke="#3d208b" stroke-width="72" stroke-miterlimit="10"/></g></g><g id="eW4Y81ZNaBP14_to" transform="translate(262.80394,222.599983)"><path id="eW4Y81ZNaBP14" d="M338.87,212.59L198.32,131.45c-3.575551-2.069112-7.983491-2.072937-11.562628-.010034s-5.785416,5.878958-5.787372,10.010034v162.3c.001956,4.131076,2.208235,7.947131,5.787372,10.010034s7.987077,2.059078,11.562628-.010034l140.55-81.14c3.57011-2.069357,5.767862-5.88351,5.767862-10.01s-2.197752-7.940643-5.767862-10.01Z" transform="translate(-262.80394,-222.599983)" opacity="0" filter="url(#eW4Y81ZNaBP14-filter)" fill="#1e1030"/></g><g id="eW4Y81ZNaBP15_to" transform="translate(262.80394,222.599983)"><path id="eW4Y81ZNaBP15" d="M338.87,212.59L198.32,131.45c-3.575551-2.069112-7.983491-2.072937-11.562628-.010034s-5.785416,5.878958-5.787372,10.010034v162.3c.001956,4.131076,2.208235,7.947131,5.787372,10.010034s7.987077,2.059078,11.562628-.010034l140.55-81.14c3.57011-2.069357,5.767862-5.88351,5.767862-10.01s-2.197752-7.940643-5.767862-10.01Z" transform="translate(-262.80394,-222.599983)" fill="#3d208b"/></g></g><clipPath id="eW4Y81ZNaBP16"><rect width="700" height="400" rx="0" ry="0" fill="none"/></clipPath></g></svg>